<svg version="1.1" xmlns="http://www.w3.org/2000/svg" xmlns:xlink="http://www.w3.org/1999/xlink" x="0px" y="0px"
	 width="18px" height="18.1px" viewBox="0 0 18 18.1" enable-background="new 0 0 18 18.1" xml:space="preserve">
<g id="remove_x5F_2">
	<path fill="#989898" d="M12.2,9.1l5.6-5.6c0.2-0.2,0.2-0.6,0-0.8l-2.4-2.4c-0.2-0.2-0.6-0.2-0.8,0L9.1,5.9L3.3,0.2
		c-0.2-0.2-0.6-0.2-0.8,0L0.2,2.5c-0.2,0.2-0.2,0.6,0,0.8L5.9,9l-5.7,5.7c-0.2,0.2-0.2,0.6,0,0.8l2.4,2.4c0.2,0.2,0.6,0.2,0.8,0
		l5.6-5.6l5.6,5.6c0.2,0.2,0.6,0.2,0.8,0l2.4-2.4c0.2-0.2,0.2-0.6,0-0.8L12.2,9.1z"/>
</g>
</svg>
