<?xml version="1.0" encoding="UTF-8" standalone="no"?>
<svg width="16px" height="16px" viewBox="0 0 16 16" version="1.1" xmlns="http://www.w3.org/2000/svg" xmlns:xlink="http://www.w3.org/1999/xlink">
    <!-- Generator: Sketch 3.6 (26304) - http://www.bohemiancoding.com/sketch -->
    <title>Page 1</title>
    <desc>Created with Sketch.</desc>
    <defs></defs>
    <g id="Page-1" stroke="none" stroke-width="1" fill="none" fill-rule="evenodd">
        <g id="Homepage" transform="translate(-141.000000, -1218.000000)" fill="#049BE4">
            <g id="Section-One" transform="translate(135.000000, 850.000000)">
                <g id="Outcomes" transform="translate(0.000000, 339.000000)">
                    <g id="First" transform="translate(6.000000, 28.000000)">
                        <g id="Page-1" transform="translate(0.000000, 1.000000)">
                            <path d="M8,0 C3.582,0 0,3.582 0,8 C0,12.418 3.582,16 8,16 C12.418,16 16,12.418 16,8 C16,3.582 12.418,0 8,0 L8,0 Z M8,14 C4.691,14 2,11.309 2,8 C2,4.691 4.691,2 8,2 C11.309,2 14,4.691 14,8 C14,11.309 11.309,14 8,14 L8,14 Z" id="Fill-1"></path>
                            <path d="M10.367,5.28 L6.985,8.662 L5.633,7.31 C5.259,6.936 4.654,6.936 4.28,7.31 C3.906,7.683 3.906,8.289 4.28,8.663 L6.31,10.69 C6.683,11.064 7.289,11.064 7.663,10.69 L11.721,6.631999 C12.095,6.257999 12.095,5.653 11.721,5.279 C11.347,4.905 10.741,4.906 10.367,5.28 L10.367,5.28 Z" id="Fill-3"></path>
                        </g>
                    </g>
                </g>
            </g>
        </g>
    </g>
</svg>